<?xml version="1.0" standalone="no"?>
<!DOCTYPE svg PUBLIC "-//W3C//DTD SVG 20010904//EN"
 "http://www.w3.org/TR/2001/REC-SVG-20010904/DTD/svg10.dtd">
<svg version="1.0" xmlns="http://www.w3.org/2000/svg"
 width="260.000000pt" height="260.000000pt" viewBox="0 0 260.000000 260.000000"
 preserveAspectRatio="xMidYMid meet">
<metadata>
Created by potrace 1.11, written by Peter Selinger 2001-2013
</metadata>
<g transform="translate(0.000000,260.000000) scale(0.100000,-0.100000)"
fill="#000000" stroke="none">
<path d="M1175 2414 c-440 -48 -826 -311 -1020 -694 -55 -110 -100 -237 -122
-347 -23 -119 -23 -357 0 -476 44 -219 156 -448 304 -616 l39 -44 45 30 c73
50 228 130 319 163 469 173 987 111 1406 -167 l57 -38 44 50 c151 169 266 399
310 622 23 119 23 357 0 476 -61 309 -241 598 -486 782 -151 114 -355 206
-533 240 -84 16 -290 27 -363 19z m-63 -516 c19 -24 58 -80 88 -125 30 -45 62
-82 70 -82 8 0 49 49 90 110 41 60 82 117 91 125 13 11 37 14 105 12 l89 -3 3
-573 2 -573 -24 -24 c-33 -32 -75 -32 -110 0 l-27 25 1 452 c1 298 -2 454 -9
456 -5 2 -18 -9 -27 -25 -10 -15 -37 -58 -61 -94 -30 -46 -43 -77 -43 -101 0
-46 -38 -88 -79 -88 -41 0 -81 44 -81 89 0 22 -12 52 -33 85 -19 28 -46 70
-61 94 -15 24 -32 42 -37 40 -7 -2 -10 -157 -9 -460 l1 -456 -30 -21 c-40 -29
-77 -27 -106 5 l-25 27 0 567 c0 312 3 570 7 573 3 4 46 7 94 7 l88 0 33 -42z"/>
</g>
</svg>
